<?xml version="1.0" encoding="utf-8"?>
<!-- Generator: Adobe Illustrator 23.0.3, SVG Export Plug-In . SVG Version: 6.00 Build 0)  -->
<svg version="1.1" id="Badges" xmlns="http://www.w3.org/2000/svg" xmlns:xlink="http://www.w3.org/1999/xlink" x="0px" y="0px"
	 viewBox="44.2 -25 128 40" enable-background="new 44.2 -25 128 40" xml:space="preserve">
<g>
	<path d="M168.2,15h-120c-2.2,0-4-1.8-4-4v-32c0-2.2,1.8-4,4-4h120c2.2,0,4,1.8,4,4v32C172.2,13.2,170.4,15,168.2,15z"/>
</g>
<g>
	<g>
		<path fill="#FFFFFF" d="M85.5-11.3l-1.6-6.4H85l0.7,3.1c0.2,0.8,0.3,1.6,0.4,2.2h0c0.1-0.7,0.3-1.4,0.5-2.2l0.8-3.1h1l0.7,3.1
			c0.2,0.8,0.3,1.5,0.4,2.2h0c0.1-0.7,0.3-1.4,0.5-2.2l0.8-3.1h1L90-11.3H89l-0.7-3.2c-0.2-0.8-0.3-1.4-0.4-2.1h0
			c-0.1,0.7-0.2,1.3-0.5,2.1l-0.8,3.2H85.5z"/>
		<path fill="#FFFFFF" d="M93.2-13.4c0,1,0.7,1.4,1.5,1.4c0.6,0,0.9-0.1,1.3-0.2l0.2,0.7c-0.3,0.2-0.9,0.3-1.6,0.3
			c-1.5,0-2.3-0.9-2.3-2.3c0-1.3,0.8-2.5,2.2-2.5c1.5,0,1.9,1.3,1.9,2.2c0,0.2,0,0.3,0,0.4H93.2z M95.5-14.1c0-0.5-0.2-1.2-1.1-1.2
			c-0.8,0-1.1,0.7-1.2,1.2H95.5z"/>
		<path fill="#FFFFFF" d="M97.4-18.1h1v6.7h-1V-18.1z"/>
		<path fill="#FFFFFF" d="M103.1-11.5c-0.2,0.1-0.7,0.3-1.3,0.3c-1.4,0-2.3-0.9-2.3-2.4c0-1.4,1-2.5,2.5-2.5c0.5,0,0.9,0.1,1.1,0.2
			l-0.2,0.8c-0.2-0.1-0.5-0.2-0.9-0.2c-1,0-1.5,0.7-1.5,1.6c0,1,0.7,1.6,1.5,1.6c0.4,0,0.7-0.1,1-0.2L103.1-11.5z"/>
		<path fill="#FFFFFF" d="M108.3-13.7c0,1.7-1.2,2.5-2.3,2.5c-1.3,0-2.3-0.9-2.3-2.4c0-1.5,1-2.4,2.3-2.4
			C107.4-16,108.3-15.1,108.3-13.7z M104.7-13.6c0,0.9,0.5,1.7,1.3,1.7c0.7,0,1.3-0.7,1.3-1.7c0-0.8-0.4-1.7-1.3-1.7
			C105.1-15.3,104.7-14.4,104.7-13.6z"/>
		<path fill="#FFFFFF" d="M109.3-14.6c0-0.5,0-0.9,0-1.3h0.9l0,0.7h0c0.2-0.4,0.7-0.8,1.4-0.8c0.6,0,1.1,0.4,1.3,0.9h0
			c0.2-0.3,0.3-0.5,0.5-0.6c0.3-0.2,0.6-0.3,1-0.3c0.7,0,1.5,0.5,1.5,2v2.7h-1v-2.6c0-0.8-0.3-1.3-0.9-1.3c-0.4,0-0.8,0.3-0.9,0.7
			c0,0.1-0.1,0.3-0.1,0.4v2.8h-1V-14c0-0.7-0.3-1.2-0.9-1.2c-0.5,0-0.8,0.4-0.9,0.7c0,0.1-0.1,0.3-0.1,0.4v2.8h-1V-14.6z"/>
		<path fill="#FFFFFF" d="M117.9-13.4c0,1,0.7,1.4,1.5,1.4c0.6,0,0.9-0.1,1.3-0.2l0.2,0.7c-0.3,0.2-0.9,0.3-1.6,0.3
			c-1.5,0-2.3-0.9-2.3-2.3c0-1.3,0.8-2.5,2.2-2.5c1.5,0,1.9,1.3,1.9,2.2c0,0.2,0,0.3,0,0.4H117.9z M120.1-14.1
			c0-0.5-0.2-1.2-1.1-1.2c-0.8,0-1.1,0.7-1.2,1.2H120.1z"/>
		<path fill="#FFFFFF" d="M125.2-17.2v1.3h1.2v0.8h-1.2v2.3c0,0.6,0.2,0.9,0.6,0.9c0.2,0,0.4,0,0.5-0.1l0,0.8
			c-0.2,0.1-0.5,0.1-0.8,0.1c-0.4,0-0.7-0.1-1-0.4c-0.2-0.3-0.3-0.7-0.3-1.2v-2.3h-0.7v-0.8h0.7V-17L125.2-17.2z"/>
		<path fill="#FFFFFF" d="M131.6-13.7c0,1.7-1.2,2.5-2.3,2.5c-1.3,0-2.3-0.9-2.3-2.4c0-1.5,1-2.4,2.3-2.4
			C130.7-16,131.6-15.1,131.6-13.7z M128-13.6c0,0.9,0.5,1.7,1.3,1.7c0.7,0,1.3-0.7,1.3-1.7c0-0.8-0.4-1.7-1.3-1.7
			C128.4-15.3,128-14.4,128-13.6z"/>
		<path fill="#FFFFFF" d="M138.9-13.7c0,1.7-1.2,2.5-2.3,2.5c-1.3,0-2.3-0.9-2.3-2.4c0-1.5,1-2.4,2.3-2.4
			C138-16,138.9-15.1,138.9-13.7z M135.3-13.6c0,0.9,0.5,1.7,1.3,1.7c0.7,0,1.3-0.7,1.3-1.7c0-0.8-0.4-1.7-1.3-1.7
			C135.7-15.3,135.3-14.4,135.3-13.6z"/>
		<path fill="#FFFFFF" d="M143.9-12.6c0,0.5,0,1,0,1.3H143l0-0.7h0c-0.2,0.3-0.7,0.8-1.5,0.8c-0.8,0-1.6-0.5-1.6-2v-2.7h1v2.5
			c0,0.8,0.3,1.4,0.9,1.4c0.5,0,0.9-0.4,1-0.7c0-0.1,0.1-0.2,0.1-0.4v-2.8h1V-12.6z"/>
		<path fill="#FFFFFF" d="M145.2-14.5c0-0.6,0-1,0-1.5h0.9l0,0.9h0c0.2-0.6,0.7-1,1.3-1c0.1,0,0.2,0,0.3,0v0.9c-0.1,0-0.2,0-0.3,0
			c-0.6,0-1,0.4-1.1,1c0,0.1,0,0.2,0,0.4v2.4h-1V-14.5z"/>
	</g>
</g>
<g>
	<g>
		<path fill="#FFFFFF" d="M85.5-6.7V6.1h-2V-6.7H85.5z"/>
		<path fill="#FFFFFF" d="M88.2-0.5c0-1,0-1.8-0.1-2.6h1.8L90-1.7h0.1c0.4-0.8,1.5-1.7,3-1.7c1.4,0,3.3,0.9,3.3,3.9v5.5h-2V0.9
			c0-1.4-0.5-2.5-1.9-2.5c-1,0-1.8,0.7-2,1.5c-0.1,0.2-0.1,0.5-0.1,0.8v5.5h-2V-0.5z"/>
		<path fill="#FFFFFF" d="M98.8,4.2c0.5,0.3,1.5,0.7,2.3,0.7c1.1,0,1.6-0.5,1.6-1.2c0-0.7-0.4-1.1-1.6-1.5c-1.7-0.6-2.5-1.6-2.5-2.7
			c0-1.6,1.3-2.8,3.3-2.8c1,0,1.8,0.3,2.4,0.6l-0.4,1.4c-0.4-0.2-1.1-0.5-1.9-0.5c-0.9,0-1.4,0.5-1.4,1.1c0,0.7,0.5,1,1.7,1.4
			c1.6,0.6,2.4,1.4,2.4,2.8c0,1.7-1.3,2.8-3.6,2.8c-1.1,0-2-0.3-2.7-0.6L98.8,4.2z"/>
		<path fill="#FFFFFF" d="M109-5.7v2.6h2.3v1.5H109v4.5c0,1.1,0.3,1.7,1.2,1.7c0.4,0,0.7,0,0.9-0.1l0.1,1.5
			c-0.3,0.1-0.9,0.2-1.6,0.2c-0.8,0-1.5-0.3-1.9-0.7c-0.5-0.5-0.7-1.3-0.7-2.5v-4.7h-1.4v-1.5h1.4v-2.2L109-5.7z"/>
		<path fill="#FFFFFF" d="M118.3,6.1L118.1,5h-0.1c-0.5,0.7-1.5,1.3-2.8,1.3c-1.9,0-2.9-1.3-2.9-2.7c0-2.3,2-3.5,5.5-3.5V0
			c0-0.7-0.2-1.9-2-1.9c-0.9,0-1.8,0.3-2.4,0.7l-0.4-1.3c0.7-0.5,1.9-0.8,3.2-0.8c2.9,0,3.7,1.9,3.7,3.8v3.4c0,0.8,0,1.6,0.1,2.2
			H118.3z M118,1.5c-1.7,0-3.6,0.3-3.6,1.9c0,1,0.7,1.5,1.4,1.5c1.1,0,1.8-0.7,2-1.4c0.1-0.2,0.1-0.4,0.1-0.5V1.5z"/>
		<path fill="#FFFFFF" d="M130.7-3.1c0,0.6-0.1,1.4-0.1,2.6v5.3c0,2-0.4,3.4-1.3,4.2c-0.9,0.8-2.2,1.1-3.5,1.1
			c-1.1,0-2.4-0.3-3.1-0.7l0.5-1.5c0.6,0.4,1.6,0.7,2.7,0.7c1.6,0,2.8-0.8,2.8-3V4.6h0c-0.5,0.8-1.5,1.5-2.8,1.5
			c-2.3,0-3.9-1.9-3.9-4.5c0-3.1,2-4.9,4.2-4.9c1.5,0,2.4,0.7,2.8,1.5h0l0.1-1.3H130.7z M128.7,0.6c0-0.2,0-0.5-0.1-0.7
			c-0.3-0.9-1-1.6-2.1-1.6c-1.4,0-2.5,1.2-2.5,3.3c0,1.7,0.9,3.1,2.5,3.1c1,0,1.8-0.6,2.1-1.6c0.1-0.3,0.1-0.6,0.1-0.9V0.6z"/>
		<path fill="#FFFFFF" d="M133.3-0.2c0-1.2,0-2.1-0.1-2.9h1.7l0.1,1.8h0.1c0.4-1.3,1.5-2,2.5-2c0.2,0,0.3,0,0.5,0v1.9
			c-0.2,0-0.4-0.1-0.6-0.1c-1.1,0-1.9,0.8-2.2,2c0,0.2-0.1,0.5-0.1,0.7v4.9h-2V-0.2z"/>
		<path fill="#FFFFFF" d="M144.9,6.1L144.8,5h-0.1c-0.5,0.7-1.5,1.3-2.8,1.3c-1.9,0-2.9-1.3-2.9-2.7c0-2.3,2-3.5,5.5-3.5V0
			c0-0.7-0.2-1.9-2-1.9c-0.9,0-1.8,0.3-2.4,0.7l-0.4-1.3c0.7-0.5,1.9-0.8,3.2-0.8c2.9,0,3.7,1.9,3.7,3.8v3.4c0,0.8,0,1.6,0.1,2.2
			H144.9z M144.7,1.5c-1.7,0-3.6,0.3-3.6,1.9c0,1,0.7,1.5,1.4,1.5c1.1,0,1.8-0.7,2-1.4c0.1-0.2,0.1-0.4,0.1-0.5V1.5z"/>
		<path fill="#FFFFFF" d="M149.2-0.5c0-1,0-1.8-0.1-2.6h1.7l0.1,1.4h0.1c0.5-0.8,1.3-1.6,2.9-1.6c1.2,0,2.2,0.7,2.6,1.8h0
			c0.3-0.5,0.7-0.9,1.1-1.2c0.5-0.4,1.1-0.6,2-0.6c1.4,0,3.1,0.9,3.1,4v5.4h-2V1c0-1.7-0.6-2.6-1.8-2.6c-0.9,0-1.5,0.6-1.8,1.4
			c-0.1,0.2-0.1,0.5-0.1,0.8v5.6h-2V0.7c0-1.4-0.6-2.4-1.8-2.4c-1,0-1.6,0.8-1.9,1.5c-0.1,0.2-0.1,0.5-0.1,0.8v5.5h-2V-0.5z"/>
	</g>
</g>
<g>
	<path fill="#FFFFFF" d="M64.3-14.8c3.2,0,3.6,0,4.8,0.1c1.2,0.1,1.8,0.2,2.2,0.4c0.6,0.2,1,0.5,1.4,0.9c0.4,0.4,0.7,0.8,0.9,1.4
		c0.2,0.4,0.4,1.1,0.4,2.2c0.1,1.3,0.1,1.6,0.1,4.8s0,3.6-0.1,4.8c-0.1,1.2-0.2,1.8-0.4,2.2c-0.2,0.6-0.5,1-0.9,1.4
		c-0.4,0.4-0.8,0.7-1.4,0.9c-0.4,0.2-1.1,0.4-2.2,0.4c-1.3,0.1-1.6,0.1-4.8,0.1s-3.6,0-4.8-0.1c-1.2-0.1-1.8-0.2-2.2-0.4
		c-0.6-0.2-1-0.5-1.4-0.9c-0.4-0.4-0.7-0.8-0.9-1.4c-0.2-0.4-0.4-1.1-0.4-2.2c-0.1-1.3-0.1-1.6-0.1-4.8s0-3.6,0.1-4.8
		c0.1-1.2,0.2-1.8,0.4-2.2c0.2-0.6,0.5-1,0.9-1.4c0.4-0.4,0.8-0.7,1.4-0.9c0.4-0.2,1.1-0.4,2.2-0.4C60.7-14.8,61.1-14.8,64.3-14.8
		 M64.3-17c-3.3,0-3.7,0-4.9,0.1c-1.3,0.1-2.1,0.3-2.9,0.6c-0.8,0.3-1.5,0.7-2.1,1.4c-0.7,0.7-1.1,1.3-1.4,2.1
		c-0.3,0.8-0.5,1.6-0.6,2.9c-0.1,1.3-0.1,1.7-0.1,4.9c0,3.3,0,3.7,0.1,4.9c0.1,1.3,0.3,2.1,0.6,2.9c0.3,0.8,0.7,1.5,1.4,2.1
		c0.7,0.7,1.3,1.1,2.1,1.4c0.8,0.3,1.6,0.5,2.9,0.6C60.6,7,61,7,64.3,7S68,7,69.3,7c1.3-0.1,2.1-0.3,2.9-0.6C73,6.1,73.6,5.7,74.3,5
		c0.7-0.7,1.1-1.3,1.4-2.1C76,2.1,76.2,1.3,76.2,0c0.1-1.3,0.1-1.7,0.1-4.9s0-3.7-0.1-4.9c-0.1-1.3-0.3-2.1-0.6-2.9
		c-0.3-0.8-0.7-1.5-1.4-2.1c-0.7-0.7-1.3-1.1-2.1-1.4c-0.8-0.3-1.6-0.5-2.9-0.6C68-16.9,67.6-17,64.3-17L64.3-17z"/>
	<path fill="#FFFFFF" d="M64.3-11.1c-3.4,0-6.2,2.8-6.2,6.2s2.8,6.2,6.2,6.2c3.4,0,6.2-2.8,6.2-6.2S67.7-11.1,64.3-11.1z M64.3-1
		c-2.2,0-4-1.8-4-4c0-2.2,1.8-4,4-4c2.2,0,4,1.8,4,4C68.3-2.8,66.5-1,64.3-1z"/>
	<circle fill="#FFFFFF" cx="70.7" cy="-11.4" r="1.4"/>
</g>
</svg>
